<svg id="Capa_1" enable-background="new 0 0 512 512" height="512" viewBox="0 0 512 512" width="512" xmlns="http://www.w3.org/2000/svg"><g><g><g fill="#5e54ac"><path d="m65 107h-40c-8.284 0-15-6.716-15-15s6.716-15 15-15h40c8.284 0 15 6.716 15 15s-6.716 15-15 15z"/><path d="m65 167h-50c-8.284 0-15-6.716-15-15s6.716-15 15-15h50c8.284 0 15 6.716 15 15s-6.716 15-15 15z"/><path d="m65 227h-40c-8.284 0-15-6.716-15-15s6.716-15 15-15h40c8.284 0 15 6.716 15 15s-6.716 15-15 15z"/><path d="m65 287h-50c-8.284 0-15-6.716-15-15s6.716-15 15-15h50c8.284 0 15 6.716 15 15s-6.716 15-15 15z"/></g><g><path d="m130 512c-66.168 0-120-53.832-120-120 0-36.521 16.685-70.97 45-93.67v-223.33c0-41.355 33.645-75 75-75s75 33.645 75 75v223.33c28.315 22.7 45 57.149 45 93.67 0 66.168-53.832 120-120 120z" fill="#f9f9f9"/><g><path d="m205 298.33v-223.33c0-41.355-33.645-75-75-75v512c66.168 0 120-53.832 120-120 0-36.521-16.685-70.97-45-93.67z" fill="#d8f1fb"/></g></g><path d="m160 323.281v-248.281c0-16.542-13.458-30-30-30s-30 13.458-30 30v248.281c-26.461 11.597-45 38.028-45 68.719 0 41.355 33.645 75 75 75s75-33.645 75-75c0-30.691-18.539-57.122-45-68.719z" fill="#acceff"/><path d="m160 323.281v-248.281c0-16.542-13.458-30-30-30v422c41.355 0 75-33.645 75-75 0-30.691-18.539-57.122-45-68.719z" fill="#6ba7ff"/></g><g><path d="m497 155.563h-36.214l-22.179-22.179c.682-1.423 1.285-2.889 1.818-4.389h37.58c8.284 0 15-6.716 15-15s-6.716-15-15-15h-37.58c-.532-1.5-1.135-2.967-1.818-4.39l22.179-22.179h36.214c8.284 0 15-6.716 15-15s-6.716-15-15-15h-27.427v-27.426c0-8.284-6.716-15-15-15s-15 6.716-15 15v36.213l-22.179 22.179c-1.422-.682-2.889-1.285-4.389-1.817v-37.58c0-8.284-6.716-15-15-15s-15 6.716-15 15v37.581c-1.5.532-2.967 1.135-4.389 1.817l-22.179-22.179v-36.214c0-8.284-6.716-15-15-15s-15 6.716-15 15v27.426h-27.427c-8.284 0-15 6.716-15 15s6.716 15 15 15h36.214l22.179 22.179c-.682 1.423-1.286 2.889-1.818 4.39h-37.58c-8.284 0-15 6.716-15 15s6.716 15 15 15h37.58c.532 1.5 1.135 2.967 1.818 4.389l-22.179 22.179h-36.214c-8.284 0-15 6.716-15 15s6.716 15 15 15h27.427v27.426c0 8.284 6.716 15 15 15s15-6.716 15-15v-36.213l22.179-22.179c1.423.682 2.889 1.285 4.389 1.818v37.58c0 8.284 6.716 15 15 15s15-6.716 15-15v-37.58c1.5-.532 2.967-1.135 4.389-1.818l22.179 22.179v36.213c0 8.284 6.716 15 15 15s15-6.716 15-15v-27.426h27.427c8.284 0 15-6.716 15-15s-6.716-15-15-15z" fill="#acceff"/><path d="m497 155.563h-36.214l-22.179-22.179c.682-1.423 1.285-2.889 1.818-4.389h37.58c8.284 0 15-6.716 15-15s-6.716-15-15-15h-37.58c-.532-1.5-1.135-2.967-1.818-4.39l22.179-22.179h36.214c8.284 0 15-6.716 15-15s-6.716-15-15-15h-27.427v-27.426c0-8.284-6.716-15-15-15s-15 6.716-15 15v36.213l-22.179 22.179c-1.422-.682-2.889-1.285-4.389-1.817v-37.58c0-8.284-6.716-15-15-15v190c8.284 0 15-6.716 15-15v-37.58c1.5-.532 2.967-1.135 4.389-1.818l22.179 22.179v36.213c0 8.284 6.716 15 15 15s15-6.716 15-15v-27.426h27.427c8.284 0 15-6.716 15-15s-6.716-15-15-15z" fill="#6ba7ff"/></g></g></svg>